<svg xmlns="http://www.w3.org/2000/svg">
  <symbol viewBox="0 0 6 10" id="chevron-right">
    <path d="M3.7 5L0 1.2 1.1 0 6 5l-4.9 5L0 8.8z"/>
  </symbol>

  <symbol viewBox="0 0 12 12" id="close">
    <path d="M7.286 6l4.424-4.434c.353-.353.353-.947 0-1.3-.353-.354-.945-.354-1.298 0L5.987 4.698 1.563.264C1.21-.088.618-.088.265.265c-.353.354-.353.948 0 1.3L4.69 6 .264 10.434c-.353.353-.353.947 0 1.3.176.178.416.266.655.266.24 0 .467-.088.656-.265L6 7.3l4.424 4.435c.177.177.416.265.656.265.24 0 .466-.088.655-.265.353-.354.353-.948 0-1.3L7.285 6z"
    fill-rule="nonzero" />
  </symbol>

  <symbol viewBox="0 0 12 7" id="dropdown">
    <polygon points="1.415 0 6 4.328 10.585 0 12 1.336 6 7 0 1.336"/>
  </symbol>

  <symbol viewBox="0 0 18 14" id="envelope">
    <path fill-rule="evenodd" d="M16.2 0H1.8C.81 0 .009.788.009 1.75L0 12.25C0 13.212.81 14 1.8 14h14.4c.99 0 1.8-.788 1.8-1.75V1.75C18 .788 17.19 0 16.2 0zm0 3.5L9 7.875 1.8 3.5V1.75L9 6.125l7.2-4.375V3.5z"/>
  </symbol>

  <symbol viewBox="0 0 15 33" id="facebook">
    <path d="M10.127 32.64V16.317h4.505l.597-5.625h-5.103l.008-2.815c0-1.467.14-2.253 2.246-2.253H15.2V0H10.69C5.28 0 3.375 2.728 3.375 7.317v3.377H0v5.624h3.374v16.32h6.753z" fill-rule="evenodd"/>
  </symbol>

  <symbol viewBox="0 0 18 18" id="linkedin">
    <path d="M4.08623 6.33814v11.59198H.22813V6.33814h3.8581zm.2541-3.58586c0 1.11304-.83781 2.00366-2.18307 2.00366h-.02465C.83736 4.75594 0 3.86532 0 2.75228 0 1.61569.86286.75 2.18269.75s2.1326.8657 2.15765 2.00228zM18 11.28363l-.00015 6.64649H14.1419V11.7284c0-1.55773-.5583-2.6207-1.95494-2.6207-1.06588 0-1.70076.7166-1.9796 1.40872-.102.24804-.12704.59364-.12704.94009v6.47391H6.22177s.05085-10.50424 0-11.59197h3.85856v1.6419c.51206-.78929 1.42916-1.91441 3.47755-1.91441 2.5388 0 4.44212 1.65714 4.44212 5.2177z"/>
  </symbol>

  <symbol viewBox="0 0 14 14" id="search">
    <path d="M5.9422 11.882c1.3222 0 2.551-.4515 3.5467-1.1834L12.7866 14 14 12.7853l-3.2978-3.286c.731-.9965 1.1822-2.2112 1.1822-3.5505C11.8844 2.663 9.2244 0 5.9578 0 2.691 0 0 2.6785 0 5.9488s2.6756 5.9333 5.9422 5.9333zm0-10.169c2.3334 0 4.2156 1.8843 4.2156 4.2203S8.2756 10.169 5.9422 10.169c-2.3333 0-4.231-1.8842-4.231-4.2202 0-2.336 1.9132-4.2358 4.231-4.2358z"
      fill-rule="evenodd"/>
  </symbol>

  <symbol viewBox="0 0 100 100" id="share">
    <path d="M68.75 64.58c-2.3 0-4.38.83-6.25 2.08L35.2 51.04c0-.42.21-.83.21-1.04 0-.21 0-.84-.2-1.05L62.5 33.33a10.71 10.71 0 006.25 2.08c5.83 0 10.42-4.58 10.42-10.41 0-5.84-4.58-10.42-10.42-10.42A10.32 10.32 0 0058.33 25c0 .41 0 .62.2 1.04L31.26 41.67A10.24 10.24 0 0025 39.59 10.32 10.32 0 0014.58 50c0 5.84 4.58 10.42 10.42 10.42 2.3 0 4.38-.83 6.25-2.08l27.3 15.62c0 .42-.21.63-.21 1.05 0 5.83 4.58 10.42 10.41 10.42 5.84 0 10.42-4.59 10.42-10.42 0-5.84-4.59-10.43-10.42-10.43z"/>
  </symbol>

  <symbol viewBox="0 0 97 81" id="twitter">
    <path d="M47.1 21.447l.21 3.487-3.505-.427c-12.756-1.637-23.9-7.188-33.362-16.51L5.817 3.37l-1.19 3.417c-2.524 7.615-.912 15.656 4.344 21.065 2.805 2.99 2.174 3.416-2.662 1.637-1.682-.57-3.154-.997-3.294-.784-.49.498 1.19 6.975 2.523 9.537 1.822 3.558 5.537 7.045 9.602 9.11l3.433 1.636-4.065.07c-3.925 0-4.065.07-3.644 1.566 1.4 4.626 6.938 9.536 13.106 11.67l4.345 1.496-3.784 2.277c-5.606 3.273-12.195 5.123-18.783 5.265-3.154.072-5.747.356-5.747.57 0 .71 8.55 4.697 13.527 6.262 14.93 4.626 32.66 2.634 45.978-5.266 9.46-5.62 18.923-16.794 23.34-27.612 2.382-5.764 4.765-16.297 4.765-21.35 0-3.274.21-3.7 4.135-7.615 2.313-2.277 4.486-4.768 4.906-5.48.702-1.352.632-1.352-2.943-.142-5.957 2.136-6.798 1.85-3.854-1.35 2.172-2.28 4.766-6.406 4.766-7.616 0-.214-1.053.142-2.244.783-1.262.71-4.065 1.78-6.168 2.42l-3.785 1.21-3.434-2.35c-1.893-1.28-4.557-2.704-5.958-3.13C69.457-.33 63.99-.19 60.766.95 52.006 4.154 46.468 12.41 47.1 21.448z" fill-rule="evenodd"/>
  </symbol>
</svg>
