<svg xmlns="http://www.w3.org/2000/svg">
  <symbol viewBox="0 0 12 7" id="dropdown">
    <polygon points="1.415 0 6 4.328 10.585 0 12 1.336 6 7 0 1.336"/>
  </symbol>

  <symbol viewBox="0 0 14 14" id="search">
    <path
      d="M5.9422 11.882c1.3222 0 2.551-.4515 3.5467-1.1834L12.7866 14 14 12.7853l-3.2978-3.286c.731-.9965 1.1822-2.2112 1.1822-3.5505C11.8844 2.663 9.2244 0 5.9578 0 2.691 0 0 2.6785 0 5.9488s2.6756 5.9333 5.9422 5.9333zm0-10.169c2.3334 0 4.2156 1.8843 4.2156 4.2203S8.2756 10.169 5.9422 10.169c-2.3333 0-4.231-1.8842-4.231-4.2202 0-2.336 1.9132-4.2358 4.231-4.2358z"
      fill-rule="evenodd"/>
  </symbol>
</svg>
